<?xml version="1.0" encoding="UTF-8" standalone="no"?>
<svg
   xmlns:dc="http://purl.org/dc/elements/1.1/"
   xmlns:cc="http://creativecommons.org/ns#"
   xmlns:rdf="http://www.w3.org/1999/02/22-rdf-syntax-ns#"
   xmlns:svg="http://www.w3.org/2000/svg"
   xmlns="http://www.w3.org/2000/svg"
   id="svg12"
   version="1.1"
   y="0px"
   x="0px"
   viewBox="0 0 100 124.39999999999999">
  <metadata
     id="metadata18">
    <rdf:RDF>
      <cc:Work
         rdf:about="">
        <dc:format>image/svg+xml</dc:format>
        <dc:type
           rdf:resource="http://purl.org/dc/dcmitype/StillImage" />
      </cc:Work>
    </rdf:RDF>
  </metadata>
  <defs
     id="defs16" />
  <title
     id="title2">cafe</title>
  <g
     id="g6"
     data-name="Capa 8">
    <path
       id="path4"
       d="M59.61,30.37l-.49-7.88a3.82,3.82,0,0,0-3.81-3.58,71.44,71.44,0,0,1-32.23,0,3.82,3.82,0,0,0-3.81,3.58l-.49,7.89a39.12,39.12,0,0,0,.88,67.35,13.67,13.67,0,0,0,6.83,1.79H51.9a13.49,13.49,0,0,0,6.7-1.72,39.11,39.11,0,0,0,8-62A39.72,39.72,0,0,0,59.61,30.37Zm-3.4,63.16a8.6,8.6,0,0,1-4.31,1H47.1c-2.28,0-5-.39-7.9-.39s-5.45.39-7.69.39h-5a8.75,8.75,0,0,1-4.42-1.06,34.24,34.24,0,0,1-.21-59.32,84.62,84.62,0,0,0,34.71,0,34.91,34.91,0,0,1,6.68,5.15A34,34,0,0,1,73.56,63.52,34.35,34.35,0,0,1,56.21,93.53ZM11.85,2.69A1.66,1.66,0,0,1,13.57.05L57.11,10.95A1.66,1.66,0,0,1,58,13.58L55.35,17h0a71.44,71.44,0,0,1-32.23,0h0Zm-3,63.83H69.57A31.48,31.48,0,0,1,54.27,91.16a9.36,9.36,0,0,1-4.56,1.36h-21A9.52,9.52,0,0,1,24,91.1,31.42,31.42,0,0,1,8.82,66.52Zm88.25-7.07L81.35,27.72a3.86,3.86,0,0,0-4.59-2l-15.1,4.6-.61-9.78a3.8,3.8,0,0,0-2.62-3.37l20.23-4a7.38,7.38,0,0,1,8.44,5L99.92,58.3A1.54,1.54,0,0,1,97.07,59.46Z" />
  </g>
  <text
     id="text8"
     font-family="'Helvetica Neue', Helvetica, Arial-Unicode, Arial, Sans-serif"
     font-weight="bold"
     font-size="5px"
     fill="#000000"
     y="114.52"
     x="0">Created by Gisela Leyva</text>
  <text
     id="text10"
     font-family="'Helvetica Neue', Helvetica, Arial-Unicode, Arial, Sans-serif"
     font-weight="bold"
     font-size="5px"
     fill="#000000"
     y="119.52"
     x="0">from the Noun Project</text>
</svg>
