<svg xmlns="http://www.w3.org/2000/svg" xmlns:xlink="http://www.w3.org/1999/xlink" version="1.1" x="0px" y="0px" viewBox="0 0 100 125" style="enable-background:new 0 0 100 100;" xml:space="preserve"><style type="text/css">
	.st0{fill:none;stroke:#000000;stroke-width:2;stroke-linecap:round;stroke-linejoin:round;stroke-miterlimit:10;}
	.st1{fill:none;stroke:#000000;stroke-width:2;stroke-linecap:round;stroke-miterlimit:10;}
	.st2{fill:none;stroke:#000000;stroke-width:2;stroke-miterlimit:10;}
</style><path d="M29.9,30c-3.9,0-7.1,3.9-7.1,8.7s3.2,8.7,7.1,8.7s7.1-3.9,7.1-8.7S33.8,30,29.9,30z M24.8,38.7c0-3.7,2.3-6.7,5.1-6.7  c-0.1,1.1-0.5,1.7-0.8,2.4c-0.5,1-1.1,2.1-1.1,4.2c0,2.1,0.6,3.2,1.1,4.2c0.4,0.8,0.8,1.4,0.9,2.7C27,45.4,24.8,42.4,24.8,38.7z   M31.8,44.9c-0.2-1.4-0.6-2.3-1.1-3.1c-0.5-0.9-0.9-1.6-0.9-3.2c0-1.6,0.4-2.3,0.9-3.2c0.4-0.7,0.9-1.6,1-2.9c1.9,1,3.2,3.4,3.2,6.2  C35,41.5,33.7,43.9,31.8,44.9z"/><path d="M54.3,42.8c-1.4-1.4-3.3-2-5.5-1.8c-2.1,0.2-4.1,1.3-5.7,2.9c-3.4,3.4-3.9,8.4-1.1,11.2c1.2,1.2,2.8,1.8,4.6,1.8  c2.3,0,4.7-1,6.6-2.9C56.6,50.6,57.1,45.6,54.3,42.8z M44.6,45.3c1.3-1.3,2.9-2.1,4.5-2.3c0.2,0,0.5,0,0.7,0c1.2,0,2.3,0.4,3.1,1.2  c-0.8,0.7-1.5,0.9-2.3,1.1c-1.1,0.3-2.3,0.7-3.7,2.1s-1.8,2.7-2.1,3.7c-0.2,0.8-0.5,1.6-1.3,2.5C41.5,51.7,42,47.9,44.6,45.3z   M45.2,54.7c0.9-1.1,1.2-2.1,1.5-3c0.3-0.9,0.5-1.8,1.6-2.9s1.9-1.4,2.9-1.6c0.8-0.2,1.7-0.5,2.8-1.3c0.6,2-0.1,4.7-2.1,6.7  C49.8,54.6,47.2,55.3,45.2,54.7z"/><path d="M59.6,32.9c2.8-2.8,2.3-7.8-1.1-11.2c-3.4-3.4-8.4-3.9-11.2-1.1c-2.8,2.8-2.3,7.8,1.1,11.2c1.9,1.9,4.3,2.9,6.6,2.9  C56.8,34.7,58.4,34.1,59.6,32.9z M57.1,23.2c2.6,2.6,3.1,6.3,1.1,8.3c-0.7-0.8-0.9-1.5-1.1-2.3c-0.3-1.1-0.7-2.3-2.1-3.7  s-2.7-1.8-3.7-2.1c-0.8-0.2-1.6-0.5-2.5-1.3c0.8-0.8,1.9-1.2,3.2-1.2C53.6,20.8,55.6,21.6,57.1,23.2z M49.8,30.4  c-2-2-2.7-4.6-2.1-6.6c1.1,0.9,2.1,1.2,3,1.5c0.9,0.3,1.8,0.5,2.9,1.6s1.4,1.9,1.6,2.9c0.2,0.8,0.5,1.7,1.3,2.8  C54.5,33.2,51.8,32.4,49.8,30.4z"/><path d="M16,61.5c-2.8,2.8-2.3,7.8,1.1,11.2c1.6,1.6,3.6,2.6,5.7,2.9c0.3,0,0.6,0.1,0.9,0.1c1.8,0,3.4-0.6,4.6-1.8  c2.8-2.8,2.3-7.8-1.1-11.2C23.8,59.2,18.8,58.7,16,61.5z M23.1,73.6c-1.6-0.2-3.2-1-4.5-2.3c-2-2-2.7-4.6-2.1-6.6  c1.1,0.9,2.1,1.2,3,1.5c0.9,0.3,1.8,0.5,2.9,1.6s1.4,1.9,1.6,2.9c0.2,0.8,0.5,1.7,1.3,2.8C24.6,73.6,23.8,73.7,23.1,73.6z   M26.9,72.4c-0.7-0.8-0.9-1.5-1.1-2.3c-0.3-1.1-0.7-2.3-2.1-3.7S21,64.5,20,64.2c-0.8-0.2-1.6-0.5-2.5-1.3c0.8-0.8,1.9-1.2,3.2-1.2  c1.7,0,3.7,0.8,5.2,2.3C28.4,66.6,28.9,70.4,26.9,72.4z"/><path d="M61.9,69.5c-1.6-1.6-3.6-2.6-5.7-2.9c-2.2-0.2-4.1,0.4-5.5,1.8c-2.8,2.8-2.3,7.8,1.1,11.2c1.9,1.9,4.4,2.9,6.6,2.9  c1.7,0,3.4-0.6,4.6-1.8c1.4-1.4,2-3.3,1.8-5.5C64.5,73.1,63.5,71.1,61.9,69.5z M53.2,78.1c-2-2-2.7-4.6-2.1-6.6  c1.1,0.9,2.1,1.2,3,1.5c0.9,0.3,1.8,0.5,2.9,1.6s1.4,1.9,1.6,2.9c0.2,0.8,0.5,1.7,1.3,2.8C57.8,80.9,55.2,80.1,53.2,78.1z   M61.6,79.2c-0.7-0.8-0.9-1.5-1.1-2.3c-0.3-1.1-0.7-2.3-2.1-3.7s-2.7-1.8-3.7-2.1c-0.8-0.2-1.6-0.5-2.5-1.3c0.8-0.8,1.9-1.2,3.2-1.2  c0.2,0,0.4,0,0.7,0c1.6,0.2,3.2,1,4.5,2.3s2.1,2.9,2.3,4.5C62.9,76.9,62.5,78.3,61.6,79.2z"/><path d="M74.1,61.3c-3.9,0-7.1,3.9-7.1,8.7s3.2,8.7,7.1,8.7s7.1-3.9,7.1-8.7S78,61.3,74.1,61.3z M69,70c0-2.8,1.3-5.2,3.2-6.2  c0.2,1.4,0.6,2.3,1.1,3.1c0.5,0.9,0.9,1.6,0.9,3.2c0,1.6-0.4,2.3-0.9,3.2c-0.4,0.7-0.9,1.6-1,2.9C70.3,75.2,69,72.8,69,70z   M74.2,76.7c0.1-1.1,0.5-1.7,0.8-2.4c0.5-1,1.1-2.1,1.1-4.2c0-2.1-0.6-3.2-1.1-4.2c-0.4-0.8-0.8-1.4-0.9-2.7c2.8,0,5.1,3,5.1,6.7  C79.2,73.6,77,76.6,74.2,76.7z"/><path d="M81.7,33.6c-1.8-1.4-4-2.1-6.1-2c-2.2,0.1-4,1-5.2,2.5c-2.3,3.2-1.1,8,2.7,10.9c1.7,1.3,3.8,2,5.8,2c0.1,0,0.2,0,0.3,0  c2.2-0.1,4-1,5.2-2.5C86.8,41.3,85.5,36.4,81.7,33.6z M79.2,45c-1.6,0.1-3.3-0.5-4.8-1.6c-2.9-2.2-4-5.8-2.3-8.1  c0.8,0.7,1.1,1.4,1.4,2.1c0.5,1,1,2.1,2.7,3.4c1.7,1.2,2.9,1.4,4,1.6c0.9,0.1,1.6,0.2,2.7,0.9C82,44.3,80.7,44.9,79.2,45z   M83.6,41.4c-1.3-0.7-2.2-0.9-3.1-1c-1-0.1-1.8-0.3-3.1-1.2c-1.3-0.9-1.6-1.7-2-2.6c-0.4-0.8-0.8-1.6-1.7-2.5  c0.6-0.3,1.3-0.5,2.1-0.5c0.1,0,0.1,0,0.2,0c1.6,0,3.2,0.6,4.6,1.6C82.7,36.8,83.9,39.3,83.6,41.4z"/><text x="0" y="115" fill="#000000" font-size="5px" font-weight="bold" font-family="'Helvetica Neue', Helvetica, Arial-Unicode, Arial, Sans-serif">Created by Made by Made</text><text x="0" y="120" fill="#000000" font-size="5px" font-weight="bold" font-family="'Helvetica Neue', Helvetica, Arial-Unicode, Arial, Sans-serif">from the Noun Project</text></svg>