<svg xmlns="http://www.w3.org/2000/svg" xmlns:xlink="http://www.w3.org/1999/xlink" version="1.1" x="0px" y="0px" viewBox="0 0 90 112.5" style="enable-background:new 0 0 90 90;" xml:space="preserve"><g><path d="M43.2,20.4c0.7-0.2,6.2-2.4,3.9-9.4c-1.6-4.8-0.6-7.4-0.3-8c-0.7,0.2-6.2,2.4-3.9,9.4C44.5,17.3,43.5,19.9,43.2,20.4z"/><path d="M50.8,20.4c0.7-0.2,6.2-2.4,3.9-9.4c-1.6-4.8-0.6-7.4-0.3-8c-0.7,0.2-6.2,2.4-3.9,9.4C52.2,17.3,51.1,19.9,50.8,20.4z"/><path d="M35.6,20.4c0.7-0.2,6.2-2.4,3.9-9.4c-1.6-4.8-0.6-7.4-0.3-8c-0.7,0.2-6.2,2.4-3.9,9.4C36.9,17.3,35.9,19.9,35.6,20.4z"/><path d="M66.7,26.1H23.3c-1.5,0-2.8,1.2-2.8,2.8v5.8c0,1.5,1.2,2.8,2.8,2.8h2L27,48.9h-0.6c-1,0-1.7,0.9-1.6,1.8l3,20.6   c0.1,0.8,0.8,1.4,1.6,1.4h1l1.7,11.5c0.2,1.4,1.4,2.4,2.7,2.4h20.2c1.4,0,2.5-1,2.7-2.4l1.7-11.5h1c0.8,0,1.5-0.6,1.6-1.4l3-20.6   c0.1-0.9-0.6-1.8-1.6-1.8H63l1.7-11.5h2c1.5,0,2.8-1.2,2.8-2.8v-5.8C69.4,27.3,68.2,26.1,66.7,26.1z M55.5,83.9   c0,0.2-0.2,0.3-0.4,0.3H34.9c-0.2,0-0.4-0.1-0.4-0.3l-1.6-11.2h24.3L55.5,83.9z M60.6,48.9H29.4l-1.7-11.5h34.6L60.6,48.9z    M67,34.6c0,0.2-0.2,0.4-0.4,0.4H23.3c-0.2,0-0.4-0.2-0.4-0.4v-5.8c0-0.2,0.2-0.4,0.4-0.4h14c0.2,1.8,1.7,3.2,3.5,3.2h8.3   c1.8,0,3.3-1.4,3.5-3.2h14c0.2,0,0.4,0.2,0.4,0.4V34.6z"/></g><text x="0" y="105" fill="#000000" font-size="5px" font-weight="bold" font-family="'Helvetica Neue', Helvetica, Arial-Unicode, Arial, Sans-serif">Created by Monica Stromann</text><text x="0" y="110" fill="#000000" font-size="5px" font-weight="bold" font-family="'Helvetica Neue', Helvetica, Arial-Unicode, Arial, Sans-serif">from the Noun Project</text></svg>