<?xml version="1.0" encoding="UTF-8" standalone="no"?>
<svg
   xmlns:dc="http://purl.org/dc/elements/1.1/"
   xmlns:cc="http://creativecommons.org/ns#"
   xmlns:rdf="http://www.w3.org/1999/02/22-rdf-syntax-ns#"
   xmlns:svg="http://www.w3.org/2000/svg"
   xmlns="http://www.w3.org/2000/svg"
   xmlns:sodipodi="http://sodipodi.sourceforge.net/DTD/sodipodi-0.dtd"
   xmlns:inkscape="http://www.inkscape.org/namespaces/inkscape"
   viewBox="0 0 100 124.39999999999999"
   x="0px"
   y="0px"
   version="1.1"
   id="svg38"
   sodipodi:docname="noun_Coffee Pot_sm.svg"
   inkscape:version="0.92.4 (5da689c313, 2019-01-14)">
  <metadata
     id="metadata44">
    <rdf:RDF>
      <cc:Work
         rdf:about="">
        <dc:format>image/svg+xml</dc:format>
        <dc:type
           rdf:resource="http://purl.org/dc/dcmitype/StillImage" />
        <dc:title>cafe</dc:title>
      </cc:Work>
    </rdf:RDF>
  </metadata>
  <defs
     id="defs42" />
  <sodipodi:namedview
     pagecolor="#ffffff"
     bordercolor="#666666"
     borderopacity="1"
     objecttolerance="10"
     gridtolerance="10"
     guidetolerance="10"
     inkscape:pageopacity="0"
     inkscape:pageshadow="2"
     inkscape:window-width="2256"
     inkscape:window-height="1410"
     id="namedview40"
     showgrid="false"
     inkscape:zoom="9.300643"
     inkscape:cx="30.108902"
     inkscape:cy="62.200001"
     inkscape:window-x="-11"
     inkscape:window-y="-11"
     inkscape:window-maximized="1"
     inkscape:current-layer="svg38" />
  <title
     id="title28">cafe</title>
  <g
     data-name="Capa 8"
     id="g32"
     transform="matrix(0.50437029,0,0,0.60460027,18.064482,21.609642)"
     style="stroke-width:1.76932561">
    <path
       d="m 59.61,30.37 -0.49,-7.88 a 3.82,3.82 0 0 0 -3.81,-3.58 71.44,71.44 0 0 1 -32.23,0 3.82,3.82 0 0 0 -3.81,3.58 l -0.49,7.89 a 39.12,39.12 0 0 0 0.88,67.35 13.67,13.67 0 0 0 6.83,1.79 H 51.9 a 13.49,13.49 0 0 0 6.7,-1.72 39.11,39.11 0 0 0 8,-62 39.72,39.72 0 0 0 -6.99,-5.43 z m -3.4,63.16 a 8.6,8.6 0 0 1 -4.31,1 h -4.8 c -2.28,0 -5,-0.39 -7.9,-0.39 -2.9,0 -5.45,0.39 -7.69,0.39 h -5 a 8.75,8.75 0 0 1 -4.42,-1.06 34.24,34.24 0 0 1 -0.21,-59.32 84.62,84.62 0 0 0 34.71,0 34.91,34.91 0 0 1 6.68,5.15 34,34 0 0 1 10.29,24.22 34.35,34.35 0 0 1 -17.35,30.01 z M 11.85,2.69 a 1.66,1.66 0 0 1 1.72,-2.64 l 43.54,10.9 A 1.66,1.66 0 0 1 58,13.58 L 55.35,17 v 0 a 71.44,71.44 0 0 1 -32.23,0 v 0 z m -3,63.83 h 60.72 a 31.48,31.48 0 0 1 -15.3,24.64 9.36,9.36 0 0 1 -4.56,1.36 h -21 A 9.52,9.52 0 0 1 24,91.1 31.42,31.42 0 0 1 8.82,66.52 Z M 97.1,59.45 81.35,27.72 a 3.86,3.86 0 0 0 -4.59,-2 l -15.1,4.6 -0.61,-9.78 a 3.8,3.8 0 0 0 -2.62,-3.37 l 20.23,-4 a 7.38,7.38 0 0 1 8.44,5 L 99.92,58.3 a 1.54,1.54 0 0 1 -2.85,1.16 z"
       id="path30"
       inkscape:connector-curvature="0"
       style="stroke-width:1.76932561" />
  </g>
  <text
     x="0"
     y="114.52"
     fill="#000000"
     font-size="5px"
     font-weight="bold"
     font-family="'Helvetica Neue', Helvetica, Arial-Unicode, Arial, Sans-serif"
     id="text34">Created by Gisela Leyva</text>
  <text
     x="0"
     y="119.52"
     fill="#000000"
     font-size="5px"
     font-weight="bold"
     font-family="'Helvetica Neue', Helvetica, Arial-Unicode, Arial, Sans-serif"
     id="text36">from the Noun Project</text>
</svg>
